<?xml version="1.0" encoding="UTF-8" standalone="no"?>
<!-- Generator: Adobe Illustrator 16.0.3, SVG Export Plug-In . SVG Version: 6.00 Build 0)  -->

<svg
   xmlns:dc="http://purl.org/dc/elements/1.1/"
   xmlns:cc="http://creativecommons.org/ns#"
   xmlns:rdf="http://www.w3.org/1999/02/22-rdf-syntax-ns#"
   xmlns:svg="http://www.w3.org/2000/svg"
   xmlns="http://www.w3.org/2000/svg"
   xmlns:sodipodi="http://sodipodi.sourceforge.net/DTD/sodipodi-0.dtd"
   xmlns:inkscape="http://www.inkscape.org/namespaces/inkscape"
   version="1.1"
   x="0px"
   y="0px"
   width="20px"
   height="20px"
   viewBox="0 0 20 20"
   enable-background="new 0 0 20 20"
   xml:space="preserve"
   id="svg162"
   sodipodi:docname="3d-tool-measure-1point.svg"
   inkscape:version="0.92.5 (2060ec1f9f, 2020-04-08)"><metadata
   id="metadata168"><rdf:RDF><cc:Work
       rdf:about=""><dc:format>image/svg+xml</dc:format><dc:type
         rdf:resource="http://purl.org/dc/dcmitype/StillImage" /></cc:Work></rdf:RDF></metadata><defs
   id="defs166" /><sodipodi:namedview
   pagecolor="#ffffff"
   bordercolor="#666666"
   borderopacity="1"
   objecttolerance="10"
   gridtolerance="10"
   guidetolerance="10"
   inkscape:pageopacity="0"
   inkscape:pageshadow="2"
   inkscape:window-width="1848"
   inkscape:window-height="1016"
   id="namedview164"
   showgrid="false"
   inkscape:zoom="11.8"
   inkscape:cx="10"
   inkscape:cy="10"
   inkscape:window-x="72"
   inkscape:window-y="27"
   inkscape:window-maximized="1"
   inkscape:current-layer="svg162" />
<g
   id="Layer_1"
   style="fill:#ffffff;fill-opacity:1">
</g>
<g
   id="Layer_2"
   style="fill:#ffffff;fill-opacity:1">
</g>
<g
   id="Layer_3"
   style="fill:#ffffff;fill-opacity:1">
</g>
<g
   id="Layer_4"
   style="fill:#ffffff;fill-opacity:1">
</g>
<g
   id="Layer_5"
   style="fill:#ffffff;fill-opacity:1">
</g>
<g
   id="Layer_6"
   style="fill:#ffffff;fill-opacity:1">
</g>
<g
   id="Layer_7"
   style="fill:#ffffff;fill-opacity:1">
</g>
<g
   id="Layer_8"
   style="fill:#ffffff;fill-opacity:1">
</g>
<g
   id="Layer_9"
   style="fill:#ffffff;fill-opacity:1">
</g>
<g
   id="Layer_10"
   style="fill:#ffffff;fill-opacity:1">
</g>
<g
   id="Layer_11"
   style="fill:#ffffff;fill-opacity:1">
</g>
<g
   id="Layer_12"
   style="fill:#ffffff;fill-opacity:1">
</g>
<g
   id="Layer_13"
   style="fill:#ffffff;fill-opacity:1">
</g>
<g
   id="Layer_14"
   style="fill:#ffffff;fill-opacity:1">
</g>
<g
   id="Layer_15"
   style="fill:#ffffff;fill-opacity:1">
</g>
<g
   id="Layer_16"
   style="fill:#ffffff;fill-opacity:1">
</g>
<g
   id="Layer_17"
   style="fill:#ffffff;fill-opacity:1">
</g>
<g
   id="Layer_18"
   style="fill:#ffffff;fill-opacity:1">
</g>
<g
   id="Layer_19"
   style="fill:#ffffff;fill-opacity:1">
</g>
<g
   id="Layer_20"
   style="fill:#ffffff;fill-opacity:1">
	
		<polygon
   display="none"
   fill="#FFFFFF"
   stroke="#000000"
   stroke-linecap="round"
   stroke-linejoin="round"
   stroke-miterlimit="10"
   points="   10.5,7.5 16.9,4.7 13.7,4.3 13.3,1.1  "
   id="polygon21"
   style="fill:#ffffff;fill-opacity:1" />
	<g
   display="none"
   id="g59"
   style="fill:#ffffff;fill-opacity:1">
		
			<ellipse
   display="inline"
   fill="none"
   stroke="#000000"
   stroke-linecap="round"
   stroke-linejoin="round"
   stroke-miterlimit="10"
   cx="7.5"
   cy="5.5"
   rx="4"
   ry="2"
   id="ellipse23"
   style="fill:#ffffff;fill-opacity:1" />
		<path
   display="inline"
   fill="none"
   stroke="#000000"
   stroke-linecap="round"
   stroke-linejoin="round"
   stroke-miterlimit="10"
   d="    M11.5,16.5c0,1.1-1.8,2-4,2s-4-0.9-4-2"
   id="path25"
   style="fill:#ffffff;fill-opacity:1" />
		
			<line
   display="inline"
   fill="none"
   stroke="#000000"
   stroke-linecap="round"
   stroke-linejoin="round"
   stroke-miterlimit="10"
   x1="3.5"
   y1="5.5"
   x2="3.5"
   y2="16.5"
   id="line27"
   style="fill:#ffffff;fill-opacity:1" />
		
			<line
   display="inline"
   fill="none"
   stroke="#000000"
   stroke-linecap="round"
   stroke-linejoin="round"
   stroke-miterlimit="10"
   x1="11.5"
   y1="5.5"
   x2="11.5"
   y2="16.5"
   id="line29"
   style="fill:#ffffff;fill-opacity:1" />
		<g
   display="inline"
   id="g39"
   style="fill:#ffffff;fill-opacity:1">
			<g
   id="g37"
   style="fill:#ffffff;fill-opacity:1">
				<line
   fill="none"
   stroke="#000000"
   stroke-linecap="round"
   stroke-linejoin="round"
   x1="16.5"
   y1="6"
   x2="16.5"
   y2="6.5"
   id="line31"
   style="fill:#ffffff;fill-opacity:1" />
				
					<line
   fill="none"
   stroke="#000000"
   stroke-linecap="round"
   stroke-linejoin="round"
   stroke-dasharray="0.9091,1.8182"
   x1="16.5"
   y1="8.3"
   x2="16.5"
   y2="15.6"
   id="line33"
   style="fill:#ffffff;fill-opacity:1" />
				<line
   fill="none"
   stroke="#000000"
   stroke-linecap="round"
   stroke-linejoin="round"
   x1="16.5"
   y1="16.5"
   x2="16.5"
   y2="17"
   id="line35"
   style="fill:#ffffff;fill-opacity:1" />
			</g>
		</g>
		
			<line
   display="inline"
   fill="none"
   stroke="#000000"
   stroke-linecap="round"
   stroke-linejoin="round"
   stroke-miterlimit="10"
   x1="15.5"
   y1="5.5"
   x2="17.5"
   y2="5.5"
   id="line41"
   style="fill:#ffffff;fill-opacity:1" />
		
			<line
   display="inline"
   fill="none"
   stroke="#000000"
   stroke-linecap="round"
   stroke-linejoin="round"
   stroke-miterlimit="10"
   x1="15.5"
   y1="17.5"
   x2="17.5"
   y2="17.5"
   id="line43"
   style="fill:#ffffff;fill-opacity:1" />
		<g
   display="inline"
   id="g57"
   style="fill:#ffffff;fill-opacity:1">
			<g
   id="g47"
   style="fill:#ffffff;fill-opacity:1">
				<circle
   cx="11.5"
   cy="5.5"
   r="2.5"
   id="circle45"
   style="fill:#ffffff;fill-opacity:1" />
			</g>
			<g
   id="g51"
   style="fill:#ffffff;fill-opacity:1">
				<circle
   fill="#FFFFFF"
   cx="11.5"
   cy="5.5"
   r="1.5"
   id="circle49"
   style="fill:#ffffff;fill-opacity:1" />
			</g>
			<g
   id="g55"
   style="fill:#ffffff;fill-opacity:1">
				<circle
   cx="11.5"
   cy="5.5"
   r="0.5"
   id="circle53"
   style="fill:#ffffff;fill-opacity:1" />
			</g>
		</g>
	</g>
	<g
   display="none"
   id="g75"
   style="fill:#ffffff;fill-opacity:1">
		<g
   display="inline"
   id="g65"
   style="fill:#ffffff;fill-opacity:1">
			<circle
   fill="#FFFFFF"
   cx="10.5"
   cy="7.5"
   r="2.5"
   id="circle61"
   style="fill:#ffffff;fill-opacity:1" />
			<path
   d="M10.5,5C10.5,5,10.5,5,10.5,5C10.5,5,10.5,5,10.5,5C10.5,5,10.5,5,10.5,5C10.5,5,10.4,5,10.5,5C10.4,5,10.4,5,10.5,5     C10.4,5,10.4,5,10.5,5C10.4,5,10.4,5,10.5,5c-0.4,0-0.7,0.1-1,0.2l0.4,0.9C10.1,6,10.3,6,10.5,6V5L10.5,5L10.5,5z M8.7,5.8     c0,0-0.1,0.1-0.1,0.1l0,0c0,0,0,0,0,0h0c0,0,0,0,0,0l0,0c0,0,0,0,0,0c0,0,0,0,0,0c0,0,0,0,0,0l0,0c0,0,0,0,0,0l0,0c0,0,0,0,0,0     l0,0c0,0,0,0,0,0l0,0c0,0,0,0,0,0h0c0,0,0,0,0,0l0,0c0,0,0,0,0,0l0,0c0,0,0,0,0,0c0,0,0,0,0,0c0,0,0,0,0,0c0,0,0,0,0,0     c0,0,0,0,0,0l0,0c0,0,0,0,0,0c0,0,0,0,0,0c0,0,0,0,0,0c0,0,0,0,0,0l0,0c0,0,0,0,0,0c0,0,0,0,0,0c0,0,0,0,0,0c0,0,0,0,0,0     c0,0,0,0,0,0l0,0c0,0,0,0,0,0c0,0,0,0,0,0c0,0,0,0,0,0c0,0,0,0,0,0c0,0,0,0,0,0c0,0,0,0,0,0c0,0,0,0,0,0c0,0,0,0,0,0c0,0,0,0,0,0     c0,0,0,0,0,0c0,0,0,0,0,0v0c0,0,0,0,0,0v0c0,0,0,0,0,0c0,0,0,0,0,0c0,0,0,0,0,0c0,0,0,0,0,0c0,0,0,0,0,0l0,0     C8.4,6.2,8.3,6.4,8.2,6.6L9.1,7c0.1-0.2,0.2-0.4,0.3-0.5L8.7,5.8L8.7,5.8z M9,7.5l-1,0c0,0,0,0,0,0.1l0,0c0,0,0,0,0,0v0     c0,0,0,0,0,0v0c0,0,0,0,0,0v0c0,0,0,0,0,0c0,0,0,0,0,0c0,0,0,0,0,0c0,0,0,0,0,0c0,0,0,0,0,0c0,0,0,0,0,0c0,0,0,0,0,0c0,0,0,0,0,0     c0,0,0,0,0,0c0,0,0,0,0,0c0,0,0,0,0,0c0,0,0,0,0,0v0c0,0,0,0,0,0v0c0,0,0,0,0,0v0c0,0,0,0,0,0v0c0,0,0,0,0,0v0c0,0,0,0,0,0     c0,0,0,0,0,0c0,0,0,0,0,0v0c0,0,0,0,0,0c0,0,0,0,0,0c0,0,0,0,0,0c0,0,0,0,0,0c0,0,0,0,0,0c0,0,0,0,0,0c0,0,0,0,0,0c0,0,0,0,0,0     c0,0,0,0,0,0v0c0,0,0,0,0,0v0c0,0,0,0,0,0v0c0,0,0,0,0,0v0c0,0,0,0,0,0l0,0C8,8,8.1,8.3,8.2,8.5l0.9-0.4C9.1,7.9,9,7.7,9,7.5     L9,7.5z M9.5,8.6L8.8,9.3C9,9.5,9.2,9.7,9.5,9.8l0,0c0,0,0,0,0,0l0,0c0,0,0,0,0,0l0,0c0,0,0,0,0,0c0,0,0,0,0,0c0,0,0,0,0,0l0,0     c0,0,0,0,0,0c0,0,0,0,0,0c0,0,0,0,0,0c0,0,0,0,0,0c0,0,0,0,0,0l0,0c0,0,0,0,0,0c0,0,0,0,0,0c0,0,0,0,0,0c0,0,0,0,0,0c0,0,0,0,0,0     c0,0,0,0,0,0c0,0,0,0,0,0c0,0,0,0,0,0c0,0,0,0,0,0c0,0,0,0,0,0c0,0,0,0,0,0c0,0,0,0,0,0l0,0c0,0,0,0,0,0c0,0,0,0,0,0c0,0,0,0,0,0     l0,0c0,0,0,0,0,0l0,0c0,0,0,0,0,0c0,0,0,0,0,0c0,0,0,0,0,0l0,0c0,0,0.1,0,0.1,0L10,8.9C9.8,8.8,9.6,8.7,9.5,8.6L9.5,8.6z      M11.2,8.8C11,8.9,10.8,9,10.6,9l0.1,1c0.2,0,0.4,0,0.6-0.1l0,0c0,0,0,0,0,0l0,0c0,0,0,0,0,0v0c0,0,0,0,0,0l0,0c0,0,0,0,0,0     c0,0,0,0,0,0c0,0,0,0,0,0c0,0,0,0,0,0c0,0,0,0,0,0l0,0c0,0,0,0,0,0l0,0c0,0,0,0,0,0v0c0,0,0,0,0,0h0c0,0,0,0,0,0c0,0,0,0,0,0     c0,0,0,0,0,0l0,0c0,0,0,0,0,0c0,0,0,0,0,0c0,0,0,0,0,0s0,0,0,0c0,0,0,0,0,0h0c0,0,0,0,0,0c0,0,0,0,0,0s0,0,0,0c0,0,0,0,0,0     c0,0,0,0,0,0c0,0,0,0,0,0c0,0,0,0,0,0c0,0,0,0,0,0c0,0,0,0,0,0l0,0c0,0,0,0,0,0c0,0,0,0,0,0c0,0,0,0,0,0c0,0,0,0,0,0c0,0,0,0,0,0     c0,0,0,0,0,0c0,0,0,0,0,0c0,0,0,0,0,0s0,0,0,0c0,0,0,0,0,0c0,0,0,0,0,0c0,0,0,0,0,0l0,0c0,0,0,0,0,0c0,0,0,0,0,0c0,0,0,0,0,0     c0,0,0,0,0,0c0,0,0,0,0,0l0,0c0,0,0,0,0,0c0,0,0,0,0,0c0,0,0,0,0,0c0,0,0,0,0,0c0,0,0,0,0,0c0,0,0,0,0,0c0,0,0,0,0,0c0,0,0,0,0,0     c0,0,0,0,0,0c0,0,0,0,0,0s0,0,0,0c0,0,0,0,0,0c0,0,0,0,0,0c0,0,0,0,0,0c0,0,0,0,0,0v0c0,0,0,0,0,0c0,0,0,0,0,0c0,0,0,0,0,0     c0,0,0,0,0,0c0,0,0,0,0,0v0c0,0,0,0,0,0l0,0c0,0,0,0,0,0l0,0c0,0,0,0,0,0c0,0,0,0,0,0c0.1,0,0.2-0.1,0.2-0.1L11.2,8.8L11.2,8.8z      M11.9,8c-0.1,0.2-0.2,0.4-0.3,0.5l0.8,0.7c0.1-0.1,0.1-0.1,0.1-0.2l0,0c0,0,0,0,0,0l0,0c0,0,0,0,0,0c0,0,0,0,0,0c0,0,0,0,0,0v0     c0,0,0,0,0,0v0c0,0,0,0,0,0l0,0c0,0,0,0,0,0l0,0c0,0,0,0,0,0v0c0,0,0,0,0,0c0,0,0,0,0,0c0,0,0,0,0,0v0c0,0,0,0,0,0c0,0,0,0,0,0     c0,0,0,0,0,0c0,0,0,0,0,0c0,0,0,0,0,0c0,0,0,0,0,0c0,0,0,0,0,0l0,0c0,0,0,0,0,0v0c0,0,0,0,0,0c0,0,0,0,0,0c0,0,0,0,0,0     c0,0,0,0,0,0c0,0,0,0,0,0c0,0,0,0,0,0c0,0,0,0,0,0c0,0,0,0,0,0c0,0,0,0,0,0c0,0,0,0,0,0c0,0,0,0,0,0c0,0,0,0,0,0c0,0,0,0,0,0l0,0     c0,0,0,0,0,0c0,0,0,0,0,0l0,0c0,0,0,0,0,0c0,0,0,0,0,0c0,0,0,0,0,0c0,0,0,0,0,0c0,0,0,0,0,0c0,0,0,0,0,0c0,0,0,0,0,0c0,0,0,0,0,0     c0,0,0,0,0,0c0,0,0,0,0,0c0,0,0,0,0,0c0,0,0,0,0,0c0,0,0,0,0,0c0,0,0,0,0,0c0,0,0,0,0,0l0,0c0,0,0,0,0,0l0,0c0,0,0,0,0,0l0,0     c0,0,0,0,0,0c0,0,0,0,0,0c0,0,0,0,0,0l0,0c0,0,0,0,0,0l0,0c0,0,0,0,0,0c0,0,0,0,0,0c0,0,0,0,0,0c0,0,0,0,0,0c0,0,0,0,0,0v0     c0,0,0,0,0,0c0,0,0,0,0,0c0,0,0,0,0,0c0,0,0,0,0,0c0,0,0,0,0,0c0,0,0,0,0,0c0,0,0,0,0,0c0,0,0,0,0,0c0,0,0,0,0,0c0,0,0,0,0,0     c0,0,0,0,0,0c0,0,0,0,0,0c0,0,0,0,0,0c0,0,0,0,0,0c0,0,0,0,0,0c0,0,0,0,0,0c0,0,0,0,0,0l0,0c0,0,0,0,0,0c0,0,0,0,0,0c0,0,0,0,0,0     c0,0,0,0,0,0c0,0,0,0,0,0c0,0,0,0,0,0c0,0,0,0,0,0c0,0,0,0,0,0c0,0,0,0,0,0c0,0,0,0,0,0c0,0,0,0,0,0c0,0,0,0,0,0c0,0,0,0,0,0     c0,0,0,0,0,0c0,0,0,0,0,0c0,0,0,0,0,0c0,0,0,0,0,0c0,0,0,0,0,0c0,0,0,0,0,0l0,0c0,0,0,0,0,0c0,0,0,0,0,0c0,0,0,0,0,0l0,0     c0,0,0,0,0,0c0,0,0,0,0,0c0,0,0,0,0,0l0,0c0,0,0,0,0,0c0,0,0,0,0,0c0,0,0,0,0,0c0,0,0,0,0,0c0,0,0,0,0,0v0c0,0,0,0,0,0     c0,0,0,0,0,0c0,0,0,0,0,0c0,0,0,0,0,0c0,0,0,0,0,0c0,0,0,0,0,0c0,0,0,0,0,0v0c0,0,0,0,0,0l0,0c0,0,0,0,0,0c0,0,0,0,0,0     c0,0,0,0,0,0c0,0,0,0,0,0c0,0,0,0,0,0v0c0,0,0,0,0,0c0,0,0,0,0,0c0,0,0,0,0,0c0,0,0,0,0,0c0,0,0,0,0,0c0,0,0,0,0,0c0,0,0,0,0,0     c0,0,0,0,0,0c0,0,0,0,0,0c0,0,0,0,0,0c0,0,0,0,0,0v0c0,0,0,0,0,0c0,0,0,0,0,0c0,0,0,0,0,0c0,0,0,0,0,0s0,0,0,0l0,0c0,0,0,0,0,0     c0,0,0,0,0,0c0,0,0,0,0,0v0c0,0,0,0,0,0c0,0,0,0,0,0c0,0,0,0,0,0c0,0,0,0,0,0c0,0,0,0,0,0c0,0,0,0,0,0l0,0c0,0,0,0,0,0     c0,0,0,0,0,0v0c0,0,0,0,0,0c0,0,0,0,0,0c0,0,0,0,0,0c0,0,0,0,0,0c0,0,0,0,0,0c0,0,0,0,0,0c0,0,0,0,0,0c0,0,0,0,0,0c0,0,0,0,0,0     c0,0,0,0,0,0c0,0,0,0,0,0c0,0,0,0,0,0c0,0,0,0,0,0c0,0,0,0,0,0c0,0,0,0,0,0c0,0,0,0,0,0c0,0,0,0,0,0v0c0,0,0,0,0,0c0,0,0,0,0,0     c0,0,0,0,0,0l0,0c0,0,0,0,0,0c0,0,0,0,0,0c0,0,0,0,0,0c0,0,0,0,0,0c0,0,0,0,0,0c0,0,0,0,0,0c0,0,0,0,0,0v0c0,0,0,0,0,0     c0,0,0,0,0,0c0,0,0,0,0,0c0,0,0,0,0,0c0,0,0,0,0,0c0,0,0,0,0,0c0,0,0,0,0,0c0,0,0,0,0,0c0,0,0,0,0,0c0,0,0,0,0,0c0,0,0,0,0,0v0     c0,0,0,0,0,0c0,0,0,0,0,0c0,0,0,0,0,0c0,0,0,0,0,0v0c0,0,0,0,0,0c0,0,0,0,0,0c0,0,0,0,0,0c0,0,0,0,0,0c0,0,0,0,0,0c0,0,0,0,0,0     c0,0,0,0,0,0c0,0,0,0,0,0v0c0,0,0,0,0,0c0,0,0,0,0,0c0,0,0,0,0,0c0,0,0,0,0,0c0,0,0,0,0,0c0,0,0,0,0,0c0,0,0,0,0,0c0,0,0,0,0,0     c0,0,0,0,0,0v0c0,0,0,0,0,0c0,0,0,0,0,0c0,0,0,0,0,0c0,0,0,0,0,0c0,0,0,0,0,0c0,0,0,0,0,0c0,0,0,0,0,0v0c0,0,0,0,0,0c0,0,0,0,0,0     c0,0,0,0,0,0c0,0,0,0,0,0c0,0,0,0,0,0c0,0,0,0,0,0c0,0,0,0,0,0c0,0,0,0,0,0c0,0,0,0,0,0c0,0,0,0,0,0c0,0,0,0,0,0c0,0,0,0,0,0     c0,0,0,0,0,0c0,0,0,0,0,0c0,0,0,0,0,0c0,0,0,0,0,0v0c0,0,0,0,0,0l0,0c0,0,0,0,0,0c0,0,0,0,0,0c0,0,0,0,0,0c0,0,0,0,0,0     c0,0,0,0,0,0v0c0,0,0,0,0,0c0,0,0,0,0,0c0,0,0,0,0,0c0,0,0,0,0,0c0,0,0,0,0,0c0,0,0,0,0,0c0,0,0,0,0,0c0,0,0,0,0,0c0,0,0,0,0,0v0     c0,0,0,0,0,0c0,0,0,0,0,0c0,0,0,0,0,0c0,0,0,0,0,0c0,0,0,0,0,0c0,0,0,0,0,0c0,0,0,0,0,0c0,0,0,0,0,0c0,0,0,0,0,0v0c0,0,0,0,0,0v0     c0,0,0,0,0,0c0,0,0,0,0,0c0,0,0,0,0,0l0,0c0,0,0,0,0,0c0,0,0,0,0,0c0,0,0,0,0,0l0,0c0,0,0,0,0,0v0c0,0,0,0,0,0c0,0,0,0,0,0     c0,0,0,0,0,0l0,0c0,0,0,0,0,0v0c0,0,0,0,0,0v0c0,0,0,0,0,0v0c0,0,0,0,0,0c0,0,0,0,0,0c0,0,0,0,0,0c0,0,0,0,0,0c0,0,0,0,0,0l0,0     c0,0,0,0,0,0c0,0,0,0,0,0c0,0,0,0,0,0v0c0,0,0,0,0,0l0,0c0,0,0,0,0,0c0,0,0,0,0,0c0,0,0,0,0,0l0,0c0,0,0,0,0,0L11.9,8L11.9,8z      M12.7,6.3l-0.9,0.5C11.9,7,12,7.2,12,7.4l1-0.1C13,7,12.9,6.7,12.7,6.3L12.7,6.3C12.8,6.4,12.7,6.4,12.7,6.3L12.7,6.3     C12.7,6.4,12.7,6.4,12.7,6.3L12.7,6.3C12.7,6.4,12.7,6.4,12.7,6.3L12.7,6.3C12.7,6.4,12.7,6.4,12.7,6.3L12.7,6.3     C12.7,6.4,12.7,6.4,12.7,6.3L12.7,6.3C12.7,6.4,12.7,6.4,12.7,6.3L12.7,6.3C12.7,6.4,12.7,6.4,12.7,6.3     C12.7,6.4,12.7,6.4,12.7,6.3C12.7,6.4,12.7,6.4,12.7,6.3L12.7,6.3C12.7,6.4,12.7,6.4,12.7,6.3C12.7,6.4,12.7,6.4,12.7,6.3     C12.7,6.4,12.7,6.4,12.7,6.3L12.7,6.3C12.7,6.4,12.7,6.4,12.7,6.3C12.7,6.4,12.7,6.4,12.7,6.3C12.7,6.4,12.7,6.4,12.7,6.3     C12.7,6.4,12.7,6.4,12.7,6.3C12.7,6.4,12.7,6.4,12.7,6.3C12.7,6.4,12.7,6.4,12.7,6.3C12.7,6.4,12.7,6.4,12.7,6.3L12.7,6.3     C12.7,6.4,12.7,6.4,12.7,6.3L12.7,6.3C12.7,6.4,12.7,6.4,12.7,6.3C12.7,6.4,12.7,6.4,12.7,6.3C12.7,6.4,12.7,6.3,12.7,6.3     L12.7,6.3C12.7,6.3,12.7,6.3,12.7,6.3L12.7,6.3C12.7,6.3,12.7,6.3,12.7,6.3C12.7,6.3,12.7,6.3,12.7,6.3     C12.7,6.3,12.7,6.3,12.7,6.3C12.7,6.3,12.7,6.3,12.7,6.3C12.7,6.3,12.7,6.3,12.7,6.3C12.7,6.3,12.7,6.3,12.7,6.3     C12.7,6.3,12.7,6.3,12.7,6.3L12.7,6.3C12.7,6.3,12.7,6.3,12.7,6.3L12.7,6.3z M11.2,5.1l-0.3,1c0.2,0.1,0.4,0.1,0.5,0.3l0.6-0.8     c-0.1-0.1-0.2-0.1-0.3-0.2l0,0c0,0,0,0,0,0l0,0c0,0,0,0,0,0l0,0c0,0,0,0,0,0c0,0,0,0,0,0s0,0,0,0l0,0c0,0,0,0,0,0c0,0,0,0,0,0     s0,0,0,0l0,0c0,0,0,0,0,0v0c0,0,0,0,0,0c0,0,0,0,0,0c0,0,0,0,0,0c0,0,0,0,0,0c0,0,0,0,0,0c0,0,0,0,0,0c0,0,0,0,0,0c0,0,0,0,0,0     c0,0,0,0,0,0c0,0,0,0,0,0s0,0,0,0c0,0,0,0,0,0c0,0,0,0,0,0l0,0c0,0,0,0,0,0l0,0c0,0,0,0,0,0c0,0,0,0,0,0c0,0,0,0,0,0s0,0,0,0     c0,0,0,0,0,0c0,0,0,0,0,0c0,0,0,0,0,0c0,0,0,0,0,0l0,0c0,0,0,0,0,0c0,0,0,0,0,0c0,0,0,0,0,0c0,0,0,0,0,0c0,0,0,0,0,0s0,0,0,0     c0,0,0,0,0,0c0,0,0,0,0,0c0,0,0,0,0,0l0,0c0,0,0,0,0,0c0,0,0,0,0,0c0,0,0,0,0,0l0,0c0,0,0,0,0,0c0,0,0,0,0,0c0,0,0,0,0,0l0,0     c0,0,0,0,0,0l0,0c0,0,0,0,0,0c0,0,0,0,0,0c0,0,0,0,0,0c0,0,0,0,0,0c0,0,0,0,0,0l0,0c0,0,0,0,0,0l0,0c0,0,0,0,0,0l0,0     C11.5,5.2,11.4,5.1,11.2,5.1L11.2,5.1z"
   id="path63"
   style="fill:#ffffff;fill-opacity:1" />
		</g>
		<g
   display="inline"
   id="g69"
   style="fill:#ffffff;fill-opacity:1">
			<circle
   fill="#FFFFFF"
   cx="10.5"
   cy="7.5"
   r="1.5"
   id="circle67"
   style="fill:#ffffff;fill-opacity:1" />
		</g>
		<g
   display="inline"
   id="g73"
   style="fill:#ffffff;fill-opacity:1">
			<circle
   cx="10.5"
   cy="7.5"
   r="0.5"
   id="circle71"
   style="fill:#ffffff;fill-opacity:1" />
		</g>
	</g>
	<path
   d="M16.5,13.3c-0.3,0-0.5,0.2-0.5,0.5v0.9c0,0.3,0.2,0.5,0.5,0.5S17,15,17,14.7v-0.9C17,13.5,16.8,13.3,16.5,13.3z M15.5,6H16   v0.5C16,6.8,16.2,7,16.5,7S17,6.8,17,6.5V6h0.5C17.8,6,18,5.8,18,5.5S17.8,5,17.5,5h-2C15.2,5,15,5.2,15,5.5S15.2,6,15.5,6z M17,11   c0-0.3-0.2-0.5-0.5-0.5S16,10.8,16,11V12c0,0.3,0.2,0.5,0.5,0.5S17,12.2,17,12V11z M17.5,17H17v-0.5c0-0.3-0.2-0.5-0.5-0.5   S16,16.2,16,16.5V17h-0.5c-0.3,0-0.5,0.2-0.5,0.5s0.2,0.5,0.5,0.5h2c0.3,0,0.5-0.2,0.5-0.5S17.8,17,17.5,17z M11,7.9v8.6   c0,0.7-1.5,1.5-3.5,1.5S4,17.2,4,16.5V7.1C4.8,7.6,6,8,7.5,8c1,0,1.9-0.2,2.6-0.4C9.8,7.3,9.5,7.1,9.3,6.7C8.8,6.9,8.2,7,7.5,7   C5.5,7,4,6.2,4,5.5S5.5,4,7.5,4c0.7,0,1.3,0.1,1.8,0.3c0.2-0.3,0.4-0.6,0.7-0.8C9.4,3.2,8.5,3,7.5,3C4.9,3,3,4.1,3,5.5v11   C3,17.9,4.9,19,7.5,19s4.5-1.1,4.5-2.5V7.9C11.8,8,11.7,8,11.5,8S11.2,8,11,7.9z M17,8.3c0-0.3-0.2-0.5-0.5-0.5S16,8,16,8.3v0.9   c0,0.3,0.2,0.5,0.5,0.5S17,9.5,17,9.2V8.3z"
   id="path77"
   style="fill:#ffffff;fill-opacity:1" />
	<path
   d="M11.5,5C11.2,5,11,5.2,11,5.5S11.2,6,11.5,6S12,5.8,12,5.5S11.8,5,11.5,5z M11.5,3C10.1,3,9,4.1,9,5.5S10.1,8,11.5,8   S14,6.9,14,5.5S12.9,3,11.5,3z M11.5,7C10.7,7,10,6.3,10,5.5S10.7,4,11.5,4S13,4.7,13,5.5S12.3,7,11.5,7z"
   id="path79"
   style="fill:#ffffff;fill-opacity:1" />
</g>
<g
   id="Layer_21"
   style="fill:#ffffff;fill-opacity:1">
</g>
<g
   id="Layer_22"
   style="fill:#ffffff;fill-opacity:1">
</g>
<g
   id="Layer_23"
   style="fill:#ffffff;fill-opacity:1">
</g>
<g
   id="Layer_24"
   style="fill:#ffffff;fill-opacity:1">
</g>
<g
   id="Layer_25"
   style="fill:#ffffff;fill-opacity:1">
</g>
<g
   id="Layer_26"
   style="fill:#ffffff;fill-opacity:1">
</g>
<g
   id="Layer_27"
   style="fill:#ffffff;fill-opacity:1">
</g>
<g
   id="Layer_28"
   style="fill:#ffffff;fill-opacity:1">
</g>
<g
   id="Layer_29"
   style="fill:#ffffff;fill-opacity:1">
</g>
<g
   id="Layer_30"
   style="fill:#ffffff;fill-opacity:1">
</g>
<g
   id="Layer_31"
   style="fill:#ffffff;fill-opacity:1">
</g>
<g
   id="Layer_32"
   style="fill:#ffffff;fill-opacity:1">
</g>
<g
   id="Layer_33"
   style="fill:#ffffff;fill-opacity:1">
</g>
<g
   id="Layer_34"
   style="fill:#ffffff;fill-opacity:1">
</g>
<g
   id="Layer_35"
   style="fill:#ffffff;fill-opacity:1">
</g>
<g
   id="Layer_36"
   style="fill:#ffffff;fill-opacity:1">
</g>
<g
   id="Layer_37"
   style="fill:#ffffff;fill-opacity:1">
</g>
<g
   id="Layer_38"
   style="fill:#ffffff;fill-opacity:1">
</g>
<g
   id="Layer_39"
   style="fill:#ffffff;fill-opacity:1">
</g>
<g
   id="Layer_40"
   style="fill:#ffffff;fill-opacity:1">
</g>
<g
   id="Layer_41"
   style="fill:#ffffff;fill-opacity:1">
</g>
<g
   id="Layer_42"
   style="fill:#ffffff;fill-opacity:1">
</g>
<g
   id="Layer_43"
   style="fill:#ffffff;fill-opacity:1">
</g>
<g
   id="Layer_44"
   style="fill:#ffffff;fill-opacity:1">
</g>
<g
   id="Layer_45"
   style="fill:#ffffff;fill-opacity:1">
</g>
<g
   id="Layer_46"
   style="fill:#ffffff;fill-opacity:1">
</g>
<g
   id="Layer_47"
   style="fill:#ffffff;fill-opacity:1">
</g>
<g
   id="Layer_48"
   style="fill:#ffffff;fill-opacity:1">
</g>
<g
   id="Layer_49"
   style="fill:#ffffff;fill-opacity:1">
</g>
<g
   id="Layer_50"
   style="fill:#ffffff;fill-opacity:1">
</g>
<g
   id="Layer_51"
   style="fill:#ffffff;fill-opacity:1">
</g>
<g
   id="Layer_52"
   style="fill:#ffffff;fill-opacity:1">
</g>
<g
   id="Layer_53"
   style="fill:#ffffff;fill-opacity:1">
</g>
<g
   id="Layer_54"
   style="fill:#ffffff;fill-opacity:1">
</g>
<g
   id="Layer_55"
   style="fill:#ffffff;fill-opacity:1">
</g>
<g
   id="Layer_56"
   style="fill:#ffffff;fill-opacity:1">
</g>
<g
   id="Layer_57"
   style="fill:#ffffff;fill-opacity:1">
</g>
<g
   id="Layer_58"
   style="fill:#ffffff;fill-opacity:1">
</g>
<g
   id="Layer_59"
   style="fill:#ffffff;fill-opacity:1">
</g>
<g
   id="Layer_60"
   style="fill:#ffffff;fill-opacity:1">
</g>
<g
   id="Layer_61"
   style="fill:#ffffff;fill-opacity:1">
</g>
<g
   id="Layer_62"
   style="fill:#ffffff;fill-opacity:1">
</g>
<g
   id="Layer_63"
   style="fill:#ffffff;fill-opacity:1">
</g>
<g
   id="Layer_64"
   style="fill:#ffffff;fill-opacity:1">
</g>
<g
   id="Layer_65"
   style="fill:#ffffff;fill-opacity:1">
</g>
<g
   id="Layer_66"
   style="fill:#ffffff;fill-opacity:1">
</g>
<g
   id="Layer_67"
   style="fill:#ffffff;fill-opacity:1">
</g>
<g
   id="Layer_68"
   style="fill:#ffffff;fill-opacity:1">
</g>
<g
   id="Layer_69"
   style="fill:#ffffff;fill-opacity:1">
</g>
<g
   id="Layer_70"
   style="fill:#ffffff;fill-opacity:1">
</g>
<g
   id="Layer_71"
   style="fill:#ffffff;fill-opacity:1">
</g>
<g
   id="Layer_72"
   style="fill:#ffffff;fill-opacity:1">
</g>
<g
   id="Layer_73"
   style="fill:#ffffff;fill-opacity:1">
</g>
<g
   id="Layer_74"
   style="fill:#ffffff;fill-opacity:1">
</g>
<g
   id="Layer_75"
   style="fill:#ffffff;fill-opacity:1">
</g>
<g
   id="Layer_76"
   style="fill:#ffffff;fill-opacity:1">
</g>
<g
   id="Layer_77"
   style="fill:#ffffff;fill-opacity:1">
</g>
<g
   id="Layer_78"
   style="fill:#ffffff;fill-opacity:1">
</g>
<g
   id="Layer_79"
   style="fill:#ffffff;fill-opacity:1">
</g>
<g
   id="Layer_80"
   style="fill:#ffffff;fill-opacity:1">
</g>
<g
   id="Layer_81"
   style="fill:#ffffff;fill-opacity:1">
</g>
<g
   id="Layer_82"
   style="fill:#ffffff;fill-opacity:1">
</g>
<g
   id="Layer_83"
   style="fill:#ffffff;fill-opacity:1">
</g>
<g
   id="Layer_84"
   style="fill:#ffffff;fill-opacity:1">
</g>
<g
   id="Layer_85"
   style="fill:#ffffff;fill-opacity:1">
</g>
<g
   id="Layer_86"
   style="fill:#ffffff;fill-opacity:1">
</g>
<g
   id="Layer_87"
   style="fill:#ffffff;fill-opacity:1">
</g>
<g
   id="Layer_88"
   style="fill:#ffffff;fill-opacity:1">
</g>
<g
   id="Layer_89"
   style="fill:#ffffff;fill-opacity:1">
</g>
<g
   id="Layer_90"
   style="fill:#ffffff;fill-opacity:1">
</g>
<g
   id="Layer_91"
   style="fill:#ffffff;fill-opacity:1">
</g>
<g
   id="Layer_92"
   style="fill:#ffffff;fill-opacity:1">
</g>
<g
   id="Layer_93"
   style="fill:#ffffff;fill-opacity:1">
</g>
<g
   id="Layer_94"
   style="fill:#ffffff;fill-opacity:1">
</g>
<g
   id="Layer_95"
   style="fill:#ffffff;fill-opacity:1">
</g>
<g
   id="Layer_96"
   style="fill:#ffffff;fill-opacity:1">
</g>
<g
   id="Layer_97"
   style="fill:#ffffff;fill-opacity:1">
</g>
<g
   id="Layer_98"
   style="fill:#ffffff;fill-opacity:1">
</g>
<g
   id="Layer_99"
   style="fill:#ffffff;fill-opacity:1">
</g>
<g
   id="Layer_100"
   style="fill:#ffffff;fill-opacity:1">
</g>
</svg>